<?xml version="1.0" encoding="utf-8"?>
<!-- Generator: Adobe Illustrator 21.0.0, SVG Export Plug-In . SVG Version: 6.00 Build 0)  -->
<svg version="1.1" id="Layer_1" xmlns="http://www.w3.org/2000/svg" xmlns:xlink="http://www.w3.org/1999/xlink" x="0px" y="0px"
	 viewBox="0 0 640 640" style="enable-background:new 0 0 640 640;" xml:space="preserve">
<style type="text/css">
	.st0{fill:none;stroke:#999999;stroke-miterlimit:10;}
	.st1{font-family:'Helvetica';}
	.st2{font-size:15px;}
	.st3{fill:url(#SVGID_1_);stroke:#999999;stroke-miterlimit:10;}
	.st4{fill:url(#SVGID_2_);stroke:#999999;stroke-miterlimit:10;}
	.st5{fill:url(#SVGID_3_);stroke:#999999;stroke-miterlimit:10;}
	.st6{fill:url(#SVGID_4_);stroke:#999999;stroke-miterlimit:10;}
	.st7{fill:url(#SVGID_5_);stroke:#999999;stroke-miterlimit:10;}
	.st8{fill:url(#SVGID_6_);stroke:#999999;stroke-miterlimit:10;}
	.st9{fill:url(#SVGID_7_);stroke:#999999;stroke-miterlimit:10;}
	.st10{fill:url(#SVGID_8_);stroke:#999999;stroke-miterlimit:10;}
	.st11{fill:url(#SVGID_9_);stroke:#999999;stroke-miterlimit:10;}
	.st12{fill:url(#SVGID_10_);stroke:#999999;stroke-miterlimit:10;}
	.st13{fill:url(#SVGID_11_);stroke:#999999;stroke-miterlimit:10;}
	.st14{fill:url(#SVGID_12_);stroke:#999999;stroke-miterlimit:10;}
	.st15{fill:url(#SVGID_13_);stroke:#999999;stroke-miterlimit:10;}
	.st16{fill:url(#SVGID_14_);stroke:#999999;stroke-miterlimit:10;}
	.st17{fill:url(#SVGID_15_);stroke:#999999;stroke-miterlimit:10;}
	.st18{fill:url(#SVGID_16_);stroke:#999999;stroke-miterlimit:10;}
	.st19{fill:url(#SVGID_17_);stroke:#999999;stroke-miterlimit:10;}
	.st20{fill:url(#SVGID_18_);stroke:#999999;stroke-miterlimit:10;}
	.st21{fill:url(#SVGID_19_);stroke:#999999;stroke-miterlimit:10;}
	.st22{fill:url(#SVGID_20_);stroke:#999999;stroke-miterlimit:10;}
	.st23{fill:url(#SVGID_21_);stroke:#999999;stroke-miterlimit:10;}
	.st24{fill:url(#SVGID_22_);stroke:#999999;stroke-miterlimit:10;}
	.st25{fill:url(#SVGID_23_);stroke:#999999;stroke-miterlimit:10;}
	.st26{fill:url(#SVGID_24_);stroke:#999999;stroke-miterlimit:10;}
	.st27{font-family:'Helvetica-Bold';}
	.st28{font-size:19px;}
	.st29{font-size:14px;}
</style>
<g>
	<line class="st0" x1="20" y1="320" x2="620" y2="320"/>
</g>
<g>
	<line class="st0" x1="320" y1="620" x2="320" y2="20"/>
</g>
<text transform="matrix(1 0 0 1 253.4697 341.6924)" class="st1 st2">6810</text>
<text transform="matrix(1 0 0 1 352.4697 341.6924)" class="st1 st2">6812</text>
<text transform="matrix(1 0 0 1 402.4697 341.6924)" class="st1 st2">6813</text>
<text transform="matrix(1 0 0 1 452.4697 341.6924)" class="st1 st2">6814</text>
<text transform="matrix(1 0 0 1 502.4697 341.6924)" class="st1 st2">6815</text>
<text transform="matrix(1 0 0 1 552.4697 341.6924)" class="st1 st2">6816</text>
<text transform="matrix(1 0 0 1 602.4697 341.6924)" class="st1 st2">6817</text>
<text transform="matrix(1 0 0 1 203.4697 341.6924)" class="st1 st2">6809</text>
<text transform="matrix(1 0 0 1 153.4697 341.6924)" class="st1 st2">6808</text>
<text transform="matrix(1 0 0 1 103.4697 341.6924)" class="st1 st2">6807</text>
<text transform="matrix(1 0 0 1 53.4697 341.6924)" class="st1 st2">6806</text>
<text transform="matrix(1 0 0 1 3.4697 341.6924)" class="st1 st2">6805</text>
<text transform="matrix(1 0 0 1 275.4697 24.6924)" class="st1 st2">1927</text>
<text transform="matrix(1 0 0 1 275.4697 74.6924)" class="st1 st2">1926</text>
<text transform="matrix(1 0 0 1 275.4697 124.6924)" class="st1 st2">1925</text>
<text transform="matrix(1 0 0 1 275.4697 174.6924)" class="st1 st2">1924</text>
<text transform="matrix(1 0 0 1 275.4697 224.6924)" class="st1 st2">1923</text>
<text transform="matrix(1 0 0 1 275.4697 274.6924)" class="st1 st2">1922</text>
<text transform="matrix(1 0 0 1 275.4697 374.6924)" class="st1 st2">1920</text>
<text transform="matrix(1 0 0 1 275.4697 424.6924)" class="st1 st2">1919</text>
<text transform="matrix(1 0 0 1 275.4697 474.6924)" class="st1 st2">1918</text>
<text transform="matrix(1 0 0 1 275.4697 524.6924)" class="st1 st2">1917</text>
<text transform="matrix(1 0 0 1 275.4697 574.6924)" class="st1 st2">1916</text>
<text transform="matrix(1 0 0 1 275.4697 624.6924)" class="st1 st2">1915</text>
<g>
	<linearGradient id="SVGID_1_" gradientUnits="userSpaceOnUse" x1="20" y1="320" x2="20" y2="320">
		<stop  offset="0" style="stop-color:#FFFFFF"/>
		<stop  offset="1" style="stop-color:#000000"/>
	</linearGradient>
	<line class="st3" x1="20" y1="313" x2="20" y2="327"/>
	<linearGradient id="SVGID_2_" gradientUnits="userSpaceOnUse" x1="70" y1="320" x2="70" y2="320">
		<stop  offset="0" style="stop-color:#FFFFFF"/>
		<stop  offset="1" style="stop-color:#000000"/>
	</linearGradient>
	<line class="st4" x1="70" y1="313" x2="70" y2="327"/>
	<linearGradient id="SVGID_3_" gradientUnits="userSpaceOnUse" x1="120" y1="320" x2="120" y2="320">
		<stop  offset="0" style="stop-color:#FFFFFF"/>
		<stop  offset="1" style="stop-color:#000000"/>
	</linearGradient>
	<line class="st5" x1="120" y1="313" x2="120" y2="327"/>
	<linearGradient id="SVGID_4_" gradientUnits="userSpaceOnUse" x1="170" y1="320" x2="170" y2="320">
		<stop  offset="0" style="stop-color:#FFFFFF"/>
		<stop  offset="1" style="stop-color:#000000"/>
	</linearGradient>
	<line class="st6" x1="170" y1="313" x2="170" y2="327"/>
	<linearGradient id="SVGID_5_" gradientUnits="userSpaceOnUse" x1="220" y1="320" x2="220" y2="320">
		<stop  offset="0" style="stop-color:#FFFFFF"/>
		<stop  offset="1" style="stop-color:#000000"/>
	</linearGradient>
	<line class="st7" x1="220" y1="313" x2="220" y2="327"/>
	<linearGradient id="SVGID_6_" gradientUnits="userSpaceOnUse" x1="270" y1="320" x2="270" y2="320">
		<stop  offset="0" style="stop-color:#FFFFFF"/>
		<stop  offset="1" style="stop-color:#000000"/>
	</linearGradient>
	<line class="st8" x1="270" y1="313" x2="270" y2="327"/>
	<linearGradient id="SVGID_7_" gradientUnits="userSpaceOnUse" x1="370" y1="320" x2="370" y2="320">
		<stop  offset="0" style="stop-color:#FFFFFF"/>
		<stop  offset="1" style="stop-color:#000000"/>
	</linearGradient>
	<line class="st9" x1="370" y1="313" x2="370" y2="327"/>
	<linearGradient id="SVGID_8_" gradientUnits="userSpaceOnUse" x1="420" y1="320" x2="420" y2="320">
		<stop  offset="0" style="stop-color:#FFFFFF"/>
		<stop  offset="1" style="stop-color:#000000"/>
	</linearGradient>
	<line class="st10" x1="420" y1="313" x2="420" y2="327"/>
	<linearGradient id="SVGID_9_" gradientUnits="userSpaceOnUse" x1="470" y1="320" x2="470" y2="320">
		<stop  offset="0" style="stop-color:#FFFFFF"/>
		<stop  offset="1" style="stop-color:#000000"/>
	</linearGradient>
	<line class="st11" x1="470" y1="313" x2="470" y2="327"/>
	<linearGradient id="SVGID_10_" gradientUnits="userSpaceOnUse" x1="520" y1="320" x2="520" y2="320">
		<stop  offset="0" style="stop-color:#FFFFFF"/>
		<stop  offset="1" style="stop-color:#000000"/>
	</linearGradient>
	<line class="st12" x1="520" y1="313" x2="520" y2="327"/>
	<linearGradient id="SVGID_11_" gradientUnits="userSpaceOnUse" x1="570" y1="320" x2="570" y2="320">
		<stop  offset="0" style="stop-color:#FFFFFF"/>
		<stop  offset="1" style="stop-color:#000000"/>
	</linearGradient>
	<line class="st13" x1="570" y1="313" x2="570" y2="327"/>
	<linearGradient id="SVGID_12_" gradientUnits="userSpaceOnUse" x1="620" y1="320" x2="620" y2="320">
		<stop  offset="0" style="stop-color:#FFFFFF"/>
		<stop  offset="1" style="stop-color:#000000"/>
	</linearGradient>
	<line class="st14" x1="620" y1="313" x2="620" y2="327"/>
</g>
<g>
	
		<linearGradient id="SVGID_13_" gradientUnits="userSpaceOnUse" x1="20" y1="320" x2="20" y2="320" gradientTransform="matrix(4.489659e-11 -1 1 4.489659e-11 0 640)">
		<stop  offset="0" style="stop-color:#FFFFFF"/>
		<stop  offset="1" style="stop-color:#000000"/>
	</linearGradient>
	<line class="st15" x1="313" y1="620" x2="327" y2="620"/>
	
		<linearGradient id="SVGID_14_" gradientUnits="userSpaceOnUse" x1="70" y1="320" x2="70" y2="320" gradientTransform="matrix(4.489659e-11 -1 1 4.489659e-11 0 640)">
		<stop  offset="0" style="stop-color:#FFFFFF"/>
		<stop  offset="1" style="stop-color:#000000"/>
	</linearGradient>
	<line class="st16" x1="313" y1="570" x2="327" y2="570"/>
	
		<linearGradient id="SVGID_15_" gradientUnits="userSpaceOnUse" x1="120" y1="320" x2="120" y2="320" gradientTransform="matrix(4.489659e-11 -1 1 4.489659e-11 0 640)">
		<stop  offset="0" style="stop-color:#FFFFFF"/>
		<stop  offset="1" style="stop-color:#000000"/>
	</linearGradient>
	<line class="st17" x1="313" y1="520" x2="327" y2="520"/>
	
		<linearGradient id="SVGID_16_" gradientUnits="userSpaceOnUse" x1="170" y1="320" x2="170" y2="320" gradientTransform="matrix(4.489659e-11 -1 1 4.489659e-11 0 640)">
		<stop  offset="0" style="stop-color:#FFFFFF"/>
		<stop  offset="1" style="stop-color:#000000"/>
	</linearGradient>
	<line class="st18" x1="313" y1="470" x2="327" y2="470"/>
	
		<linearGradient id="SVGID_17_" gradientUnits="userSpaceOnUse" x1="220" y1="320" x2="220" y2="320" gradientTransform="matrix(4.489659e-11 -1 1 4.489659e-11 0 640)">
		<stop  offset="0" style="stop-color:#FFFFFF"/>
		<stop  offset="1" style="stop-color:#000000"/>
	</linearGradient>
	<line class="st19" x1="313" y1="420" x2="327" y2="420"/>
	
		<linearGradient id="SVGID_18_" gradientUnits="userSpaceOnUse" x1="270" y1="320" x2="270" y2="320" gradientTransform="matrix(4.489659e-11 -1 1 4.489659e-11 0 640)">
		<stop  offset="0" style="stop-color:#FFFFFF"/>
		<stop  offset="1" style="stop-color:#000000"/>
	</linearGradient>
	<line class="st20" x1="313" y1="370" x2="327" y2="370"/>
	
		<linearGradient id="SVGID_19_" gradientUnits="userSpaceOnUse" x1="370" y1="320" x2="370" y2="320" gradientTransform="matrix(4.489659e-11 -1 1 4.489659e-11 0 640)">
		<stop  offset="0" style="stop-color:#FFFFFF"/>
		<stop  offset="1" style="stop-color:#000000"/>
	</linearGradient>
	<line class="st21" x1="313" y1="270" x2="327" y2="270"/>
	
		<linearGradient id="SVGID_20_" gradientUnits="userSpaceOnUse" x1="420" y1="320" x2="420" y2="320" gradientTransform="matrix(4.489659e-11 -1 1 4.489659e-11 0 640)">
		<stop  offset="0" style="stop-color:#FFFFFF"/>
		<stop  offset="1" style="stop-color:#000000"/>
	</linearGradient>
	<line class="st22" x1="313" y1="220" x2="327" y2="220"/>
	
		<linearGradient id="SVGID_21_" gradientUnits="userSpaceOnUse" x1="470" y1="320" x2="470" y2="320" gradientTransform="matrix(4.489659e-11 -1 1 4.489659e-11 0 640)">
		<stop  offset="0" style="stop-color:#FFFFFF"/>
		<stop  offset="1" style="stop-color:#000000"/>
	</linearGradient>
	<line class="st23" x1="313" y1="170" x2="327" y2="170"/>
	
		<linearGradient id="SVGID_22_" gradientUnits="userSpaceOnUse" x1="520" y1="320" x2="520" y2="320" gradientTransform="matrix(4.489659e-11 -1 1 4.489659e-11 0 640)">
		<stop  offset="0" style="stop-color:#FFFFFF"/>
		<stop  offset="1" style="stop-color:#000000"/>
	</linearGradient>
	<line class="st24" x1="313" y1="120" x2="327" y2="120"/>
	
		<linearGradient id="SVGID_23_" gradientUnits="userSpaceOnUse" x1="570" y1="320" x2="570" y2="320" gradientTransform="matrix(4.489659e-11 -1 1 4.489659e-11 0 640)">
		<stop  offset="0" style="stop-color:#FFFFFF"/>
		<stop  offset="1" style="stop-color:#000000"/>
	</linearGradient>
	<line class="st25" x1="313" y1="70" x2="327" y2="70"/>
	
		<linearGradient id="SVGID_24_" gradientUnits="userSpaceOnUse" x1="620" y1="320" x2="620" y2="320" gradientTransform="matrix(4.489659e-11 -1 1 4.489659e-11 0 640)">
		<stop  offset="0" style="stop-color:#FFFFFF"/>
		<stop  offset="1" style="stop-color:#000000"/>
	</linearGradient>
	<line class="st26" x1="313" y1="20" x2="327" y2="20"/>
</g>
<text transform="matrix(1 0 0 1 302.5908 325)" class="st27 st28">dog</text>
<text transform="matrix(0.7071 -0.7071 0.7071 0.7071 370.4629 311.0521)" class="st27 st29">puppy</text>
<text transform="matrix(0.7071 -0.7071 0.7071 0.7071 617.6094 311.4061)" class="st27 st29">wolf</text>
<text transform="matrix(0.7071 -0.7071 0.7071 0.7071 469.1408 310.6511)" class="st27 st29">cave canem</text>
<text transform="matrix(0.7071 -0.7071 0.7071 0.7071 518.3087 311.151)" class="st27 st29">Bassett Hound</text>
<text transform="matrix(0.7071 -0.7071 0.7071 0.7071 569.2072 311.8906)" class="st27 st29">Weimaraner</text>
<text transform="matrix(0.7071 -0.7071 0.7071 0.7071 420.1342 311.541)" class="st27 st29">dogmatic</text>
<text transform="matrix(0.7071 -0.7071 0.7071 0.7071 19.3094 311.5093)" class="st27 st29">doggone</text>
<text transform="matrix(0.7071 -0.7071 0.7071 0.7071 67.5062 310.5093)" class="st27 st29">the dog that didn’t bark in the night</text>
<text transform="matrix(0.7071 -0.7071 0.7071 0.7071 122.2103 312.5093)" class="st27 st29">Skippy</text>
<text transform="matrix(0.7071 -0.7071 0.7071 0.7071 168.2345 311.5093)" class="st27 st29">Lassie</text>
<text transform="matrix(0.7071 -0.7071 0.7071 0.7071 219.5426 311.5093)" class="st27 st29">canine</text>
<text transform="matrix(0.7071 -0.7071 0.7071 0.7071 270.1346 310.5093)" class="st27 st29">god</text>
<text transform="matrix(1 0 0 1 332 274)" class="st27 st29">cat</text>
<text transform="matrix(1 0 0 1 332 224)" class="st27 st29">feline</text>
<text transform="matrix(1 0 0 1 332 174)" class="st27 st29">lion</text>
<text transform="matrix(1 0 0 1 332 124)" class="st27 st29">cat burglar</text>
<text transform="matrix(1 0 0 1 332 74)" class="st27 st29">nine lives</text>
<text transform="matrix(1 0 0 1 332 24)" class="st27 st29">ailurophile</text>
<text transform="matrix(1 0 0 1 332 624)" class="st27 st29">cat’s-paw</text>
<text transform="matrix(1 0 0 1 332 574)" class="st27 st29">Pyewacket</text>
<text transform="matrix(1 0 0 1 332 524)" class="st27 st29">the cat in the hat</text>
<text transform="matrix(1 0 0 1 332 474)" class="st27 st29">Felix</text>
<text transform="matrix(1 0 0 1 332 424)" class="st27 st29">cat-o-nine-tails</text>
<text transform="matrix(1 0 0 1 332 374)" class="st27 st29">kitten</text>
</svg>
